<?xml version="1.0" encoding="UTF-8"?>
<svg width="236.24mm" height="192.15mm" version="1.1" viewBox="0 0 837.06941 680.8606" xmlns="http://www.w3.org/2000/svg">
 <g transform="translate(14.801 1293.4)">
  <path transform="translate(354.06 -1200.6)" d="m210.66-92.727c-1.9078 0-3.6673 4.0698-13.551 31.359-1.0677 2.948-5.0973 11.896-8.9551 19.883-24.141 49.982-55.969 75.275-94.695 75.252-9.215-0.01-30.149-3.82-35.154-6.4062-1.4676-0.7582-4.5436-1.8833-6.8359-2.5-3.9843-1.0719-28.36-13.079-40.672-20.035-5.2608-2.9723-5.9945-3.1481-7.3828-1.7598s-1.1272 2.311 2.6367 9.2891c2.2982 4.2607 7.1472 12.285 10.775 17.832 21.181 32.384 41.307 52.824 61.506 62.469 2.5822 1.233 6.417 3.9659 8.5234 6.0723 2.6752 2.6752 5.7924 4.4196 9.8594 5.4785 2.7387 5.6776 7.5852 15.51 13.352 25.936-5.355 1.1893-11.754 2.579-20.93 4.5644-5.225 1.1306-13.1 2.5289-17.5 3.1074-4.4 0.5784-10.25 1.6689-13 2.4238-2.75 0.755-9.95 1.8909-16 2.5234-6.05 0.6324-14.375 1.7768-18.5 2.5449-4.125 0.768-14.25 1.8781-22.5 2.4648s-21.975 1.9206-30.5 2.9648-21.575 2.1783-29 2.5195c-15.792 0.7257-18 1.0843-18 2.9258 0 2.0576 3.9852 2.4202 34 3.1016 26.109 0.5928 46.174-0.14876 67-2.4766 4.675-0.5226 13.305-1.4036 19.18-1.959 10.795-1.0206 26.835-3.6434 43.32-7.082 18.202-3.7967 26.529-5.1933 27.873-4.6777 0.75712 0.2905 4.6082 6.9607 8.5566 14.824 10.761 21.431 24.716 37.449 52.07 59.764 20.812 16.978 23.385 19.474 27.051 26.242 3.0614 5.6523 3.4396 7.1853 3.4219 13.855-0.022 8.2965-1.8577 12.953-8.1367 20.629-7.1963 8.7969-20.551 15.127-33.881 16.062-7.5717 0.5312-8.3949 0.38409-14-2.5059-14.046-7.242-15.717-7.649-31.455-7.668-15.596-0.0188-17.694 0.50673-32.137 8.0586-5.8031 3.0342-9.0371 3.0144-15.363-0.0977-2.75-1.3528-5.771-2.4638-6.7129-2.4688s-4.0919-0.89396-7-1.9746-11.362-3.2046-18.787-4.7207c-12.42-2.5361-15.3-2.7542-36-2.7246-16.275 0.0233-24.99 0.48-31.5 1.6543-6.4261 1.1591-10.287 1.3703-13.5 0.73437-7.3086-1.4464-18.096-1.1076-30.338 0.95313-19.425 3.2701-30.169 9.305-35.117 19.73-3.8948 8.2062-4.3532 15.317-1.5801 24.447 4.619 15.207 6.1496 17.234 35.424 46.891 38.429 38.93 52.297 56.932 56.111 72.842 2.0693 8.6299 1.6525 15.064-1.5195 23.504-2.4408 6.4943-10.387 15.647-22.48 25.893-9.7913 8.2949-21.036 21.074-23.883 27.143-1.3212 2.816-3.3505 7.1744-4.5098 9.6855-6.2592 13.558 1.9451 29.452 19.541 37.857 9.5263 4.5504 29.142 8.7398 44.352 9.4726 15.938 0.76799 36.219-0.76569 44.68-3.3789 8.114-2.5062 10.967-2.508 30.82-0.0176 10.659 1.3371 21.925 2 33.99 2 15.767 0 19.433-0.32062 29.027-2.5371 6.04-1.3953 15.707-2.9331 21.482-3.418 25.367-2.1298 35.955-3.2913 42.5-4.6602 3.85-0.80522 9.475-1.9328 12.5-2.5059 7.2751-1.3781 23.882-6.3088 32-9.502 12.657-4.9788 31.448-16.193 44.355-26.471 7.72-6.1467 8.1689-5.9599 23.645 9.9141 15.033 15.42 23.866 22.845 35 29.418 16.361 9.6597 30.727 14.396 51 16.812 8.1376 0.97002 17.791 1.5131 22 1.2383 35.432-2.3138 53.307-6.5995 49.027-11.756-0.6697-0.80695-4.2129-3.1323-7.873-5.166-16.958-9.4226-28.925-19.511-36.043-30.387-1.9866-3.0353-6.0863-10.23-9.1113-15.99-8.3572-15.913-20.167-27.398-39-37.928-4.125-2.3064-8.3338-5.0091-9.3516-6.0059-2.218-2.1724-1.8657-2.9984 5.418-12.742 2.7451-3.6723 7.237-10.603 9.9824-15.4 20.443-35.724 28.278-71.248 25.012-113.41-3.4595-44.662-23.614-88.858-56.023-122.86-8.0001-8.3926-25.09-22.638-34.537-28.787-16.278-10.595-24.783-14.964-45.5-23.375-5.775-2.3448-14.325-5.8261-19-7.7363s-9.625-3.8173-11-4.2383c-5.0223-1.5377-23.679-10.944-30.223-15.238-6.7595-4.4356-15.368-13.032-16.785-16.762-1.0572-2.7818-0.216-3.5416 9.4551-8.5371 4.6755-2.4151 8.7221-4.9707 8.9941-5.6797 0.77427-2.0176-8.3565-1.6171-14.604 0.64062-1.5869 0.5736-4.657 1.5587-8.5312 2.7539-2.4177-9.2268-6.0186-24.536-6.4688-35.789 4.7901-1.5112 18.519-20.937 26.102-37.18 10.378-22.23 14.063-38.734 14.785-66.215 0.44875-17.084 0.22793-20.815-2.1953-37-2.877-19.216-5.2262-26-9.0059-26zm-323.79 75.562c-3.3728 0.086-6.4151 2.7729-8.5781 7.8008-1.1282 2.6225-2.9816 10.139-4.1172 16.703-1.1355 6.5638-2.4569 13.284-2.9375 14.934-0.48064 1.65-1.399 5.5519-2.041 8.6719-1.3189 6.4095-1.6581 6.7809-8.5215 9.3203-6.4092 2.3713-17.849 13.719-22.188 22.008-1.7272 3.3-4.3496 10.5-5.8262 16s-2.9939 11.125-3.373 12.5c-0.61249 2.2214-1.2974 2.535-6.1426 2.8105-2.999 0.1704-9.5152-0.3926-14.48-1.25-17.716-3.059-18.651-4.0389-9.5312-10 3.588-2.3454 5.6611-4.3038 5.123-4.8418-1.0205-1.0205-15.162 1.8038-19.119 3.8184-1.375 0.6999-3.5563 2.4027-4.8457 3.7832-4.2387 4.538-0.82851 8.7512 9.1328 11.285 2.8663 0.7291 7.4629 1.9542 10.213 2.7207 2.75 0.7664 11.075 1.7242 18.5 2.1289s15.525 1.1071 18 1.5605c7.1004 1.3009 50.029 0.38876 66-1.4023 7.975-0.8943 16.75-2.3734 19.5-3.2852s7.925-2.2188 11.5-2.9062c15.5-2.9801 24.944-8.5238 23.605-13.855-0.8174-3.2568-6.026-6.5525-10.355-6.5625-3.6423 0-3.9212 0.79802-1.7402 5.0156 1.428 2.7614 1.387 3.0017-0.76562 4.4121-6.3226 4.1428-28.781 7.9654-31.395 5.3438-0.70479-0.707-1.6929-5.7789-2.2188-11.379-1.3755-14.649-4.5888-21.683-14.945-32.719l-5.4648-5.8203 0.56055-7.1797c0.30731-3.9482 1.46-11.678 2.5625-17.178 4.0423-20.166 3.7158-27.593-1.3594-30.918-1.6176-1.0599-3.2189-1.5586-4.752-1.5195zm-146.93 102.03c-2.0705-0.069-4.622 0.55256-7.4746 1.8477-6.706 3.0448-7.6287 6.8986-2.6738 11.174 2.6798 2.3122 17.571 6.6207 26.887 7.7793 4.4235 0.5502 9.3197 1.4865 10.881 2.0801 1.5611 0.5935 8.9667 1.7529 16.457 2.5762 7.4904 0.8234 17.155 2.1618 21.479 2.9746 4.3233 0.8129 11.441 1.4785 15.816 1.4785s8.8036 0.45331 9.8398 1.0078c1.0363 0.5546 3.5093 4.1019 5.4961 7.8828 1.9868 3.7808 5.61 9.2147 8.0508 12.074 5.1792 6.0675 5.4251 8.0116 2.3984 18.934-1.1214 4.0468-2.0888 10.217-2.1484 13.713-0.0911 5.3493 0.31104 6.9607 2.5391 10.176 1.456 2.101 2.6484 4.3732 2.6484 5.0488s0.65229 2.788 1.4492 4.6953v0.01c0.79694 1.9073 1.7207 3.4668 2.0547 3.4668 0.33402 0 1.4877-1.9883 2.5625-4.418 1.0748-2.4298 3.4839-6.2484 5.3535-8.4863 2.1217-2.5395 3.6601-5.6711 4.0918-8.332 0.38042-2.3448 1.5062-7.4137 2.5039-11.264 0.99769-3.85 2.0836-8.6092 2.4121-10.576 1.2069-7.2273 0.0384-6.9465 30.582-7.3418 46.998-0.6082 59.935-1.5184 106.49-7.4961 34.232-4.3954 61.855-11.633 69.986-18.336 4.754-3.9187 4.8966-8.5996 0.38672-12.719-5.0005-4.5674-22.241-10.003-31.799-10.026l-2.4238-0.0098 2.4238 2.6074c1.3334 1.4343 4.6758 3.6218 7.4258 4.8613 6.0866 2.7434 10.756 6.9572 10.307 9.2988-0.45925 2.3934-9.1742 6.9427-15.807 8.252-3.025 0.59709-8.875 1.9648-13 3.0371-4.125 1.0724-12.359 2.3889-18.297 2.9258-5.9384 0.537-14.263 1.6413-18.5 2.4551-4.2366 0.81391-16.478 1.9879-27.203 2.6074-10.725 0.6196-21.525 1.5446-24 2.0566-7.1722 1.4836-54 2.4219-54 1.082 0-0.6134 3.1293-4.6615 6.9551-8.9961l6.957-7.8808 9.8789-0.64844c5.4341-0.3561 13.803-1.3302 18.596-2.166 4.7928-0.8358 14.13-1.963 20.75-2.5039 6.62-0.54089 14.359-1.6282 17.199-2.418 2.8397-0.7899 8.0891-1.736 11.664-2.1016 7.0835-0.7244 13.685-3.156 15.922-5.8652 3.4936-4.2312-3.2159-10.602-11.172-10.602-4.2335 0-4.4734 0.57705-2.0078 4.873 2.2881 3.9868 1.2569 4.9225-6.8203 6.1816-3.5322 0.5506-8.1786 1.6875-10.324 2.5254-2.1456 0.83789-8.8956 1.9577-15 2.4902s-14.923 1.6902-19.598 2.5723c-6.843 1.2912-15.908 1.6089-46.5 1.6289-47.308 0.031-65.629-0.61546-76.5-2.6973-4.675-0.8952-13.684-2.0523-20.02-2.5723-6.3351-0.52-12.86-1.4098-14.5-1.9766-1.6399-0.56669-7.7055-1.6521-13.48-2.4121-11.651-1.5333-25-5.2171-25-6.8984 0-0.5984 0.99957-2.1532 2.2227-3.4551 1.8856-2.0072 1.9997-2.5085 0.75-3.2988-0.85703-0.5419-1.9257-0.83165-3.168-0.87305v-0.0039zm-54.346 6.9102c-3.9707 0-10.258 3.71-12.002 7.082-2.2218 4.2965-1.0795 8.2581 3.4082 11.813 4.6155 3.6555 18.036 10.105 21.025 10.105 1.2206 0 4.1068 0.84987 6.4141 1.8887 2.3073 1.0389 6.2203 2.203 8.6953 2.5859s7.2 1.4991 10.5 2.4824 9.15 2.1037 13 2.4883c3.85 0.3847 9.25 1.3514 12 2.1484 2.75 0.7969 11.3 2.1109 19 2.9199 10.79 1.1337 14.285 1.8574 15.242 3.1582 1.0044 1.365 0.96079 2.0003-0.22852 3.3145-1.0994 1.2148-1.4116 3.8068-1.2363 10.27 0.22724 8.3783 0.34224 8.7572 3.7285 12.305 1.9218 2.0133 5.4608 4.5182 7.8652 5.5664 4.1686 1.8171 4.3385 2.0575 3.6719 5.1406-2.4384 11.278-1.5769 15.097 4.2969 19.049 2.0124 1.3539 4.3352 2.7014 5.1602 2.9941 8.0702 2.8634 19.355-4.0762 20.02-12.311 0.62804-7.7838 0.0878-9.2804-5.0762-14.053l-5.0566-4.6738 2.1445-6.3672c2.0475-6.0779 2.0735-6.6191 0.56445-11.887-0.86958-3.0355-1.6983-6.8658-1.8398-8.5117-0.34841-4.0515-3.1095-5.2081-16.74-7.0059-6.1364-0.8093-11.51-1.6877-11.939-1.9531-0.42947-0.2654-5.6836-0.95229-11.678-1.5254-5.9941-0.57321-13.373-1.7093-16.398-2.5254-3.025-0.816-9.512-1.9787-14.414-2.584-4.9021-0.6053-11.597-1.9593-14.879-3.0078-3.282-1.0484-7.372-1.9252-9.0879-1.9492s-4.9191-0.73709-7.1191-1.584-6.7-2.3252-10-3.2852c-8.2088-2.3876-16.131-6.5934-18.111-9.6152-1.5238-2.3256-1.5247-2.8292-0.0176-6.7754 2.112-5.5303 2.085-5.6973-0.91211-5.6973zm-39.621 9c-5.7329 0-14.838 8.5678-14.838 13.963 0 10.661 21.442 20.073 55 24.143 4.125 0.5002 13.125 1.6394 20 2.5312s17.225 1.9007 23 2.2422c16.986 1.0044 43.364 0.53194 45.895-0.82226 1.634-0.8745 1.9555-1.5316 1.1973-2.4453-0.73155-0.8814-5.4386-1.3033-15.975-1.4316-8.7038-0.10599-20.504-1.0054-28.277-2.1543-7.3371-1.0846-18.74-2.4324-25.34-2.9961-16.44-1.4041-37.614-5.6282-50.215-10.018-4.1546-1.4471-7.2199-3.3108-9.25-5.623-3.5866-4.0849-3.6519-4.7841-1.0352-10.889 2.5159-5.8693 2.5002-6.5-0.16211-6.5zm272.88 60.203c-1.5688 0-3.1021 0.35576-4.498 1.1309-4.2478 2.3585-10.225 10.616-10.225 14.125 0 4.2818 5.0633 11.296 8.7402 12.107 1.5176 0.3349 3.1986 0.71511 3.7344 0.84571 1.6029 0.3904 7.8692-0.97831 10.186-2.2246 3.3145-1.7832 6.3398-7.4428 6.3398-11.861 0-7.5445-7.4792-14.134-14.277-14.123zm-148.88 0.18164c-1.2815-0.06-2.2138 0.28143-3.4297 1.0781-3.2083 2.1022-3.0496 3.357 0.83399 6.6387 2.7268 2.3042 3.0684 3.0399 2.123 4.5723-1.1451 1.8564-3.9856 2.141-8.123 0.81445-1.9812-0.6352-2.25-0.37653-2.25 2.1719 0 3.9199 2.4285 7.1082 6.2949 8.2637 9.9758 2.9813 19.287-5.3368 16.705-14.924-1.1837-4.396-3.6796-6.5575-9.334-8.0859-1.1567-0.3127-2.0514-0.4932-2.8203-0.5293zm83.439 32.66c-0.22824 0-0.48583 0.49146-0.9961 1.4766-0.56341 1.0877-1.2654 6.5781-1.5606 12.199-0.43125 8.2133-0.93558 10.726-2.5644 12.797-1.1148 1.4172-2.3339 4.0176-2.7109 5.7793-0.83304 3.8925-6.489 15.686-10.225 21.32-6.5816 9.9271-8.087 11.988-10.01 13.707-2.0388 1.8227-2.0408 1.8185-1.5527-6 0.65084-10.425-1.7064-15.339-9.666-20.143-4.9606-2.9936-6.111-3.2846-11.732-2.9551-5.2666 0.30871-6.7139 0.82444-9.3359 3.3203-1.7066 1.6245-4.0772 4.9746-5.2676 7.4453-2.6343 5.4678-7.6125 9.0078-12.668 9.0078-2.6947 0-4.9557 0.95216-8.2695 3.4824-5.379 4.1072-7.1761 8.4979-6.4727 15.818 0.41568 4.3261 1.0738 5.616 4.4922 8.8047 8.0679 7.5256 19.184 6.0072 26.455-3.6133l3.75-4.9609 7.0176 0.32422c6.0474 0.27938 7.6578-0.0341 11.65-2.2656 2.5482-1.4242 5.0251-2.5898 5.5059-2.5898 1.7718 0 0.76691 3.3945-3.5059 11.842-8.2576 16.325-12.096 26.054-15.055 38.158-0.73944 3.025-2.105 8.353-3.0352 11.84-1.4188 5.3186-1.6268 9.9899-1.293 29 0.43609 24.83 0.29677 24.151 8.1406 39.949 4.9896 10.05 15.448 19.776 29.436 27.381 1.8291 0.99443 4.0875 3.6756 5.5801 6.6211 3.222 6.3583 7.2175 9.6626 14.096 11.662l5.5117 1.6035v11.6c0 11.043 0.14285 11.851 2.9824 16.814 4.326 7.561 19.289 17.434 26.717 17.629 2.0898 0.0548 4.9258 0.48289 6.3008 0.95117 3.8799 1.3214 10.145 0.29252 16.084-2.6426 7.0731-3.4957 8.6624-4.9647 9.4805-8.7617 0.37284-1.7305 1.7636-5.0128 3.0918-7.2949s2.8916-6.7822 3.4727-10c0.58108-3.2178 1.3957-7.7797 1.8105-10.137 0.79051-4.4911 4.8531-9.7513 8.6836-11.242 2.8477-1.1084 12.073 1.6328 15.703 4.666 4.0363 3.3727 9.8327 3.2466 12.602-0.27344 1.1399-1.4492 2.0704-3.8117 2.0684-5.25-5e-3 -3.6752-3.4815-8.9543-6.7441-10.242-2.9255-1.1548-4.117-1.8172-8.5254-4.7402-3.9042-2.5887-19.055-3.6454-22.941-1.5996-1.5322 0.80654-4.2477 2.2056-6.0352 3.1094-5.074 2.5653-7.713 5.388-10.879 11.635-2.9583 5.8372-5.4772 19.238-4.3086 22.92 0.86033 2.7107-6.9952 11.295-11.781 12.875-3.4319 1.1326-4.2715 1.0703-6.9629-0.51953-2.3428-1.3839-4.3103-1.678-8.4004-1.2559-4.3245 0.44633-5.8117 0.18334-7.8027-1.3828-4.0165-3.1594-6.1152-10.184-6.1152-20.457 0-8.2842 0.27251-9.5523 3.25-15.139 3.7774-7.0872 4.0502-11.031 1.1777-16.965-4.0162-8.2963-16.67-12.44-19.85-6.5-0.81495 1.5228-0.23195 2.3589 3.4707 4.9688 3.2963 2.3234 4.4512 3.8026 4.4512 5.7031 0 3.0035-4.073 7.4746-6.8086 7.4746-2.9695 0-7.1895-4.5108-7.207-7.7031-0.022-4.0242-1.3114-5.5041-4.5996-5.2812-5.6046 0.37982-7.0458-0.0543-12.936-3.8984-11.621-7.5846-19.119-17.136-24.033-30.617-2.8388-7.7872-2.916-8.5054-2.916-27 0-16.947 0.23692-19.702 2.2012-25.5 1.2112-3.575 2.6391-8.75 3.1719-11.5 2.4597-12.697 14.696-39.223 26.295-57 10.429-15.983 16.407-28.619 17.42-36.814 0.35247-2.8522 1.1973-6.0855 1.877-7.1855 1.4902-2.4119 2.7612-20.194 1.6426-22.979-0.39582-0.9851-0.59404-1.4766-0.82226-1.4766zm26.307 22.607c-2.8251 0.0481-5.4558 0.68368-7.3574 1.9297-6.1412 4.0238-11.992 11.023-12.695 15.188-1.3374 7.916 5.733 17.971 14.576 20.729 5.864 1.8287 8.0596 1.804 13.113-0.14843 8.8408-3.4155 12.771-9.1289 12.771-18.568 0-7.7516-2.7147-12.357-9.6934-16.447-3.1292-1.8339-7.0826-2.7435-10.715-2.6816zm63.793 20.42c-1.8359-0.0558-3.6079 0.39578-5.1621 1.4844-2.8223 1.9768-2.8146 3.1281 0.02734 3.9941 3.7196 1.1335 5.75 3.5717 5.75 6.9043 0 3.8795-1.5558 5.5449-5.1777 5.5449-2.9565 0-5.5024-2.819-6.1035-6.7578-0.53039-3.4754-1.3514-3.567-3.6035-0.40429-2.1087 2.9614-2.5681 4.7572-2.2734 8.877 0.18511 2.5881 5.6281 9.1211 8.6035 10.326 3.3228 1.3457 11.428 1.0748 14.439-0.48242 3.3972-1.7567 7.5536-7.0694 8.4844-10.846 2.1292-8.639-7.0288-18.399-14.984-18.641zm-64.73 35.102c-1.8831 0.0587-3.5463 0.83136-6.6641 2.832-5.944 3.8143-7.9902 7.2244-7.9902 13.311 0 4.9586 2.3581 8.7123 7.4102 11.793 8.7222 5.3188 21.537-0.8529 23.213-11.18 1.2057-7.4298-5.3221-15.195-13.951-16.596-0.73861-0.11986-1.3899-0.17973-2.0176-0.16015zm-27.111 24.855c-2.9778 0.0331-5.7153 1.156-8.916 3.4316-7.8333 5.5693-11.627 10.622-11.627 15.488 0 6.9488 4.445 13.669 11.5 17.389 3.7897 1.9979 13.7 2.1272 17.375 0.22656 4.3407-2.2447 9.9397-9.0671 10.68-13.012 1.7347-9.2466-2.85-18.036-11.297-21.656-2.9388-1.2597-5.3987-1.8929-7.7148-1.8672z" fill="#e3dedb"/>
  <path d="m749.2-613.81c-20.273-2.4166-34.639-7.1522-51-16.812-11.134-6.5732-19.967-13.998-35-29.418-15.476-15.874-15.924-16.062-23.644-9.9153-12.908 10.277-31.699 21.492-44.356 26.47-8.1176 3.1932-24.725 8.1252-32 9.5033-3.025 0.57302-8.65 1.7007-12.5 2.5059-6.5448 1.3688-17.133 2.5296-42.5 4.6594-5.775 0.48486-15.442 2.0232-21.482 3.4185-9.5947 2.2165-13.261 2.5369-29.028 2.5369-12.065 0-23.331-0.66287-33.99-2-19.853-2.4904-22.707-2.4888-30.821 0.0173-8.4606 2.6132-28.741 4.147-44.679 3.379-15.209-0.73288-34.825-4.9227-44.352-9.4731-17.596-8.4051-25.8-24.299-19.541-37.857 1.1593-2.5111 3.1888-6.8698 4.51-9.6858 2.8471-6.0684 14.091-18.847 23.882-27.142 12.093-10.245 20.041-19.399 22.482-25.893 3.172-8.44 3.5876-14.873 1.5183-23.503-3.8148-15.91-17.682-33.912-56.111-72.842-29.274-29.656-30.805-31.683-35.425-46.89-2.7732-9.13-2.3131-16.241 1.5816-24.447 4.948-10.425 15.691-16.462 35.116-19.732 12.241-2.0608 23.029-2.3997 30.338-0.95328 3.213 0.6359 7.0739 0.42632 13.5-0.7328 6.5102-1.1743 15.225-1.6323 31.5-1.6556 20.7-0.0296 23.58 0.18834 36 2.7244 7.425 1.5162 15.879 3.6408 18.788 4.7214s6.0581 1.9689 7 1.974c0.94187 5e-3 3.9625 1.116 6.7125 2.4687 6.3262 3.112 9.5616 3.1327 15.365 0.0985 14.443-7.5519 16.54-8.0776 32.135-8.0588 15.738 0.019 17.409 0.42637 31.455 7.6683 5.6051 2.89 6.4283 3.0373 14 2.5061 13.33-0.93519 26.684-7.2666 33.88-16.063 6.279-7.6756 8.116-12.332 8.138-20.628 0.0177-6.6702-0.36095-8.2032-3.4224-13.855-3.6658-6.7682-6.2389-9.2644-27.051-26.243-27.354-22.315-41.309-38.331-52.07-59.763-3.9484-7.8635-7.7984-14.535-8.5556-14.826-1.3436-0.5156-9.6725 0.8826-27.874 4.6793-16.486 3.4386-32.524 6.0603-43.319 7.0809-5.8746 0.5554-14.506 1.4373-19.181 1.9599-20.826 2.3278-40.891 3.0696-67 2.4768-30.015-0.6814-34-1.045-34-3.1026 0-1.8415 2.2085-2.2005 18-2.9262 7.425-0.3412 20.475-1.4748 29-2.5191s22.25-2.3787 30.5-2.9654 18.375-1.6951 22.5-2.4631c4.125-0.7681 12.45-1.914 18.5-2.5464 6.05-0.6325 13.25-1.7676 16-2.5226 2.75-0.7549 8.6-1.8459 13-2.4243 4.4-0.5785 12.275-1.9768 17.5-3.1074 31.276-6.7673 31.904-6.9157 59.5-14.04 11.404-2.9443 41.027-11.682 47.339-13.963 6.247-2.2577 15.378-2.6582 14.604-0.6406-0.27205 0.709-4.3201 3.265-8.9956 5.6801-9.6711 4.9955-10.512 5.7545-9.4546 8.5363 1.4175 3.7298 10.026 12.326 16.786 16.762 6.5436 4.2938 25.2 13.7 30.222 15.238 1.375 0.421 6.325 2.3284 11 4.2386s13.225 5.3914 19 7.7362c20.717 8.4112 29.222 12.781 45.5 23.376 9.4469 6.1488 26.537 20.393 34.538 28.786 32.41 34 52.563 78.196 56.023 122.86 3.2661 42.166-4.5681 77.69-25.011 113.41-2.7454 4.7975-7.2376 11.727-9.9827 15.4-7.2836 9.7438-7.6349 10.57-5.4169 12.742 1.0177 0.99679 5.2254 3.6994 9.3504 6.0057 18.833 10.53 30.643 22.015 39 37.928 3.025 5.76 7.1254 12.956 9.112 15.991 7.118 10.876 19.084 20.964 36.043 30.387 3.6601 2.0337 7.2027 4.3578 7.8724 5.1648 4.2794 5.1564-13.595 9.4426-49.027 11.756-4.2091 0.27486-13.862-0.26865-22-1.2387zm37.698-10.251c6.8825-0.99511 8.3019-1.508 8.3019-3 0-0.98982-0.34961-1.7997-0.77691-1.7997-1.1651 0-10.556-7.2289-17.19-13.232-7.9358-7.1815-18.283-20.453-25.534-32.749-10.28-17.435-14.039-21.476-26.559-28.552-9.701-5.4833-22.119-9.2539-32.941-10.002-11.709-0.80947-15.284 0.2246-14.816 4.2858 0.27966 2.4304 0.95478 2.9053 5.8164 4.0915 3.025 0.7381 8.425 3.2426 12 5.5655 11.05 7.1801 12.03 7.7094 17.022 9.1917 6.3771 1.8938 16.478 7.2446 16.478 8.7289 0 1.5679-13.719 2.1099-19 0.75068-10.622-2.7342-12.02-1.064-3.7801 4.5156 5.3526 3.6244 16.937 9.6659 23.609 12.312 4.3964 1.744 2.714 3.5561-3.6133 3.8919-4.139 0.21964-7.6287-0.41211-13.198-2.3894-4.1643-1.4784-7.89-2.3695-8.2793-1.9802-1.343 1.3429 9.4272 8.763 23.515 16.201 16.94 8.9436 18.747 9.9976 18.747 10.937 0 1.8891-7.7186 1.5364-13.324-0.60891-12.901-4.9374-21.813-9.2846-29.029-14.161-3.1056-2.0986-7.4466-5.001-9.6466-6.4497s-8.8309-7.5194-14.735-13.491c-10.342-10.459-13.013-12.289-14.019-9.6065-0.84026 2.2414 0.64189 4.4914 8.109 12.31 12.349 12.93 26.485 23.644 40.146 30.428 3.575 1.7753 7.3813 3.6918 8.4585 4.2589 7.2214 3.8016 20.038 7.0503 40.153 10.178 11.466 1.7828 14.072 1.8235 24.087 0.3755zm-406.2-10.697c21.983-4.6791 45.415-15.925 61.051-29.302 18.392-15.734 31.843-37.711 38.037-62.145 3.0396-11.991 2.9493-18.008-0.27723-18.467-2.3219-0.33046-4.7331 3.9222-12.367 21.812-14.592 34.195-33.356 55.291-61.266 68.882-10.75 5.2346-17.663 7.6667-32.177 11.32-11.096 2.7932-13.431 3.0311-31 3.1593-18.591 0.13564-19.179 0.0758-27.326-2.7769-9.1199-3.1936-16.906-9.1085-19.163-14.558-1.4194-3.4268-4.0108-4.0691-4.0108-0.99402 0 2.9433 2.7489 9.0717 5.2756 11.761 3.9193 4.1719 12.316 8.1791 22.362 10.671 13.23 3.2826 14.292 3.3782 33.863 3.0507 12.668-0.21197 19.548-0.8268 27-2.413zm98.343-4.1828c36.869-7.8884 63.156-23.503 84.525-50.209 7.5062-9.3807 6.036-10.571-7.656-6.1983-5.8874 1.8802-9.9609 2.4872-16.691 2.4872-5.2084 0-9.1755-0.44113-9.5599-1.063-1.1646-1.8843 2.604-4.7852 7.6114-5.8591 2.6807-0.5749 6.5668-1.9526 8.6359-3.0616s4.4001-2.0163 5.18-2.0163 4.2752-1.35 7.7675-3c3.4922-1.65 6.7095-3 7.1496-3 1.7676 0 21.993-14.05 26.279-18.255 6.6285-6.5032 12.235-15.408 14.881-23.638 1.9416-6.0384 2.2233-8.5607 1.7751-15.892-1.1348-18.56-10.648-35.154-31.938-55.71-13.12-12.667-15.698-15.673-15.768-18.384-0.0277-1.0785 1.0536-1.2344 4.9646-0.71556 3.9083 0.51846 5 0.36149 5-0.71895 0-3.7432-31.597-29.423-33.662-27.358-0.66941 0.6694 1.7631 8.7683 3.347 11.144 1.8705 2.8052 1.7602 11.527-0.14581 11.527-0.8036 0-5.3982-5.4557-10.21-12.124-14.633-20.277-26.804-31.961-40.822-39.191-5.5003-2.8366-6.976-3.128-17.507-3.4571l-11.5-0.35939-8 3.9276c-4.433 2.1764-10.804 6.4414-14.288 9.5655-8.7764 7.8694-12.25 7.6016-13.677-1.0544-0.38018-2.3058-1.2186-4.6282-1.8631-5.1608-1.6515-1.3647-19.497-7.1468-22.057-7.1468-1.1664 0-5.2693-0.92807-9.1176-2.0624-8.5022-2.5061-38.077-3.9055-42.856-2.0278-3.6972 1.4528-3.1563 2.0968 9.2172 10.973 22.492 16.134 46.369 40.835 48.689 50.367 0.57578 2.3658 0.36371 2.75-1.5181 2.75-2.1056 0-5.8116-2.868-22.029-17.049-17.174-15.016-36.728-27.132-60-37.177-18.923-8.1672-35.482-12.471-32.044-8.3274 0.66067 0.79606 3.3033 2.2034 5.8724 3.1274 9.8767 3.5523 30.223 13.108 42.832 20.116 28.03 15.578 48.185 30.319 68.73 50.265 11.5 11.164 14.871 14.847 34.023 37.159 4.903 5.7121 14.197 15.646 20.654 22.074 9.2733 9.2336 13.275 12.462 19.048 15.37 6.6563 3.3521 7.8486 3.6343 13.346 3.1594 7.5795-0.65481 13.949-3.502 20.672-9.2402 5.7045-4.8692 9.1725-5.6412 10.894-2.4248 0.86927 1.6243 0.65558 2.9684-1.0232 6.4364-2.9954 6.1878-8.5298 10.772-16.837 13.946-6.8594 2.6211-11.168 6.1644-11.168 9.184 0 0.74252-1.133 5.2943-2.5179 10.115-8.6386 30.072-24.854 53.369-54.285 77.992-6.2166 5.2009-11.131 9.9776-10.921 10.615 0.66205 2.0061 6.7248 2.5563 23.066 2.0933 10.705-0.30333 18.975-1.119 25.5-2.5151zm1.1632-131.53c-6.0576-1.7039-13.222-6.9692-15.514-11.402-1.3145-2.5421-1.305-3.0284 0.087-4.4203 1.9162-1.9162 1.8399-1.916 5.5106-0.0177 6.1234 3.1666 20.647 7.2884 27.756 7.8771 7.9542 0.65871 11.155 1.8311 11.155 4.0861 0 4.5197-18.103 6.9403-28.994 3.8769zm-24.806-31.586c-1.9337-1.9337-1.4378-3.4036 2.8-8.3 2.2-2.5419 4-5.0303 4-5.5298 0-0.49951-3.3542-5.1991-7.4537-10.443-21.788-27.873-23.327-52.59-4.0641-65.245 14.185-9.3193 36.442-6.1158 53.103 7.6431 13.177 10.881 20.946 25.185 25.453 46.864 1.7073 8.2105 3.3576 13.212 4.3596 13.212 2.8049 0 12.713 2.711 18.831 5.1526 9.0093 3.5952 12.839 7.2069 10.317 9.7292-1.318 1.318-2.3493 1.3526-7.6539 0.25693-10.629-2.1953-29.87-3.3416-44.722-2.6642-11.513 0.52508-16.917 1.3155-27.5 4.0221-7.2441 1.8528-15.14 4.074-17.547 4.936-5.2385 1.8764-8.3018 1.9898-9.9243 0.36734zm41.461-23.316c3.7613-0.79694 8.7808-1.4568 11.154-1.4664 9.0915-0.0366 10.006-2.859 5.273-16.269-9.1402-25.896-23.516-40.876-39.035-40.677l-5.5537 0.0712 6 1.7206c7.4043 2.1233 12.588 5.5694 17.721 11.782 5.6758 6.8686 7.02 9.9937 7.5631 17.584 0.56639 7.9161-0.33388 9.5156-5.8524 10.398-4.1535 0.66417-5.4799 2.4806-3.9283 5.3798 2.9981 5.602-1.2342 10.165-10.017 10.801-5.7561 0.41636-6.8534 0.96761-5.2363 2.6305 0.96563 0.99297 13.116-0.0907 21.911-1.9542zm-32.626-35.002c5.7758-2.9868 4.7422-10.378-2.0829-14.895-4.6501-3.0773-6.399-2.5919-8.9949 2.4964-2.591 5.0788-2.4701 7.1537 0.63149 10.84 2.9089 3.457 5.9093 3.9047 10.446 1.5585zm83.137 215.48c14.55-2.4087 28.252-5.9265 39.328-10.097 10.412-3.9206 27.188-12.278 31-15.445l3-2.4917-2.1405-1.7127c-1.1773-0.94198-3.5476-2.4837-5.2674-3.4261-6.9222-3.7932-4.3976-7.7866 4.9228-7.7866 11.762 0 28.995-7.2129 34.511-14.445 5.8151-7.624 6.8421-11.851 6.9105-28.445 0.0553-13.423 0.28325-15.529 1.783-16.476 2.5563-1.6137 7.8577 4.0062 11.755 12.461l3.1826 6.9048h5.8397c8.5122 0 9.0049-0.34826 8.9939-6.357-0.0137-7.5074-3.7366-24.832-5.7704-26.852-1.0151-1.0085-4.7943-2.1809-9.2202-2.8604-4.125-0.63328-8.6916-1.7646-10.148-2.514-1.4564-0.74939-4.6993-1.8223-7.2066-2.3842-5.1173-1.1468-14.145-6.455-14.145-8.317 0-1.7087 5.2466-2.1081 9.7942-0.74562 3.6 1.0786 21.447 4.03 24.369 4.03 0.73542 0 1.3369-0.7875 1.3366-1.75-5.4e-4 -1.8572-2.8578-9.7506-5.3391-14.75-3.1822-6.4114-6.6604-15.534-6.6604-17.47 0-5.1424 6.6067 0.16299 12.12 9.7331 3.7899 6.578 9.8319 19.199 10.538 22.012 1.0234 4.0774 4.3704 5.3123 16.071 5.9296 12.36 0.65202 15.27-0.18422 15.27-4.3868 0-2.9115-4.4911-17.354-8.495-27.318-3.7118-9.2374-5.5015-10.545-15.579-11.386-15.518-1.2942-17.992-4.9408-5.4995-8.1059 4.3598-1.1046 8.1082-2.5659 8.3297-3.2474 0.66538-2.047-5.5469-11.916-17.161-27.261-11.04-14.587-16.269-22.66-15.303-23.626 0.8296-0.8296 5.774 2.1394 11.348 6.8144 6.883 5.7725 21.026 22.08 29.481 33.993 3.7792 5.3248 7.7246 9.9524 8.7677 10.283 2.9475 0.93551 20.205-1.4185 24.11-3.2888 2.178-1.0431 3.619-2.5129 3.815-3.8914 0.70684-4.9709-18.404-36.235-23.855-39.025-1.7836-0.91291-5.5123-1.0837-13.565-0.6213-8.3263 0.47809-11.297 0.3276-11.871-0.60131-1.2868-2.0821 2.6603-4.9342 8.312-6.006 6.2943-1.1937 7.1649-1.6441 7.1649-3.7068 0-2.1341-9.5448-11.379-25.839-25.028-13.439-11.257-18.958-16.833-17.804-17.987 0.32187-0.32187 4.0856 0.8004 8.3638 2.4939s9.0161 3.3794 10.529 3.7465 2.75 1.2574 2.75 1.9787c0 0.72124 3.2625 3.674 7.25 6.5616 8.0176 5.8061 23.133 18.41 26.248 21.885 4.1536 4.6356 10.293 6.1955 15.937 4.0495 3.2526-1.2366 3.4483-5.5689 0.52441-11.609-2.394-4.9454-12.39-16.129-19.293-21.586-5.4828-4.3339-8.02-4.658-21.165-2.7029-4.1691 0.62007-7.8605 0.84697-8.2033 0.50423-1.4714-1.4714 1.9609-5.8943 5.7202-7.371 6.0208-2.365 5.3271-4.0456-3.908-9.4674-2.5358-1.4888-6.4365-3.5732-8.6682-4.632-3.4336-1.6291-7.4423-5.7368-7.4423-7.626 0-0.97117 4.8174-0.55782 10.201 0.87532 6.7932 1.8083 15.432 5.688 24.003 10.78 5.2084 3.0942 7.3926 3.8762 9.4117 3.3694 2.3482-0.58935 2.5704-1.0228 2.0787-4.053-0.92734-5.7145-10.79-19.584-16.607-23.353-6.8577-4.4436-9.8552-5.1539-21.75-5.1539-13.761 0-15.649-0.91196-11.353-5.4842 1.8068-1.9232 1.8494-2.307 0.47453-4.2699-0.89655-1.28-3.8377-2.8113-7.2352-3.7669-9.8986-2.7843-16.59-10.585-7.8564-9.1586 1.7225 0.28138 6.5069 0.99155 10.632 1.5782 4.125 0.58662 9.6618 1.5751 12.304 2.1967 2.6422 0.62158 5.0152 0.91889 5.2734 0.66069 0.85513-0.85513-13.777-13.941-17.176-15.362-2.057-0.85948-6.971-1.3943-12.81-1.3943-5.4194 0-9.7454-0.44066-10.11-1.0298-0.35005-0.5664 0.78615-2.65 2.5249-4.6304 2.8988-3.3015 3.0284-3.7335 1.5603-5.2016-1.1096-1.1096-3.9748-1.7167-9.3339-1.9778-8.4302-0.4107-10.233-1.2317-10.233-4.6604 0-2.8274-0.95481-3.5715-9-7.0139-43.105-18.444-63.44-28.985-84.688-43.903-7.388-5.1868-11.025-6.6033-14.067-5.4781-7.4988 2.774 3.604 16.258 21.255 25.813 18.383 9.952 31.762 19.602 42.973 30.995 3.8352 3.8978 7.5319 7.0868 8.2148 7.0868 1.5849 0 2.8679-2.4983 3.7271-7.2576 0.80675-4.4687 4.3445-7.2705 8.0166-6.3489 2.9481 0.7399 12.157 14.165 15.85 23.106 6.9095 16.73 7.9492 21.271 7.9002 34.498-0.0395 10.672-0.42732 13.673-2.6496 20.502-2.8982 8.906-6.7551 16.683-12.749 25.707-6.1651 9.2818-23.864 26.373-36.783 35.52-6.325 4.4782-12.512 8.8676-13.75 9.7544s-2.25 2.5266-2.25 3.6441c0 1.175 4.1171 6.532 9.7631 12.703 25.095 27.43 38.712 47.635 45.473 67.475 2.8239 8.2867 3.1347 10.383 3.1415 21.196 7e-3 10.367-0.34198 12.977-2.5614 19.183-3.7595 10.512-8.6161 18.562-17.989 29.817-4.5801 5.5-9.8821 12.925-11.782 16.5-9.27 17.44-26.793 35.331-52.295 53.394-10.461 7.4093-9.446 7.8536 10.422 4.5646zm-182.17-29.94c16.042-3.3124 30.646-9.0781 41.5-16.384 17.215-11.587 24.727-24.144 17.75-29.668-2.4258-1.9209-3.6342-2.121-10.25-1.6977-8.6608 0.55421-15.369 3.2875-26.853 10.942-8.222 5.48-11.459 5.9171-11.956 1.6145-0.17-1.4707 0.6175-4.4903 1.75-6.7102 3.4595-6.7811 1.9752-12.176-2.9223-10.622-3.3285 1.0564-13.996 10.068-19.276 16.283-6.5197 7.6751-12.68 20.216-13.412 27.3-0.5477 5.3067-0.43606 5.6568 2.625 8.2325 3.9373 3.313 7.8042 3.4434 21.044 0.70964zm345.06-65.19c2.8242-3.3936 6.2874-7.9118 7.6961-10.04 3.6249-5.4777 2.3917-6.2894-9.5555-6.2894h-9.7026l0.10275 3c0.16636 4.8573 1.6201 14.819 2.5174 17.25 1.329 3.6009 3.4604 2.6664 8.9419-3.9202zm28.342-50.208c2.6852-6.0717 4.5965-14.043 4.5965-19.171 0-3.8871-0.92718-4.1671-8.3072-2.5085-2.306 0.51826-5.4784 1.2139-7.0496 1.5458-2.4607 0.5199-2.7892 0.97844-2.3695 3.3077 0.98398 5.4603 8.7973 22.204 10.361 22.204 0.2146 0 1.4604-2.42 2.7685-5.3778zm7.5965-74.422c0-2.1057-1.8449-4.2-3.7-4.2-1.7957 0-1.6271 1.981 0.35499 4.1713 2.0998 2.3202 3.345 2.3309 3.345 0.0287zm-183.66-22.007c5.5362-5.3636 14.963-16.762 18.83-22.77 2.9721-4.6166 8.8256-16.805 8.8256-18.378 0-0.57074 1.0111-3.852 2.2469-7.2917 1.9749-5.4969 2.2469-8.1908 2.2472-22.254 3.3e-4 -15.318-0.13079-16.37-3.074-24.67-4.3671-12.315-11.558-23.765-20.92-33.309-8.165-8.3237-13.165-11.927-33.595-24.206-13.305-7.9974-24.749-16.4-30.131-22.124-4.4554-4.7383-8.0292-5.9095-11.364-3.7244-3.307 2.1669-3.8213 5.2762-2.4477 14.8 1.3429 9.3114 5.553 18.037 11.945 24.756 4.3212 4.5425 6.2738 4.8352 12.4 1.8589l4.3602-2.1183 3.6542 2.3683c4.1265 2.6745 4.5947 4.7296 1.6789 7.3684-3.0079 2.7221-2.5592 6.8517 1.0767 9.9111 5.4164 4.5576 9.728 3.2393 15.053-4.6028 2.2155-3.2625 4.713-6.1946 5.5499-6.5158 1.8684-0.717 3.2841 1.3405 3.3046 4.8025 0.0176 2.9887 2.228 5.2304 6.5153 6.6078 1.65 0.5301 2.9493 1.3764 2.8873 1.8805-0.062 0.5042-2.0861 2.0708-4.498 3.4814-8.2308 4.8138-8.8437 10.216-1.9421 17.118 2.8824 2.8824 4.6266 3.8175 7.1207 3.8175 3.3828 0 7.9321-3.2104 7.9321-5.5976 0-2.4725 5.1297-7.4024 7.7024-7.4024 2.3221 0 2.4697 0.26065 1.8396 3.25-0.37678 1.7875-0.91915 5.3558-1.2053 7.9295-0.51024 4.5899-0.44186 4.729 3.5716 7.2625 2.2505 1.4207 4.0918 2.9374 4.0918 3.3705 0 1.6262-2.4928 3.1875-5.0892 3.1875-1.4791 0-3.7157 0.83122-4.9704 1.8472-2.0237 1.6387-2.2829 2.7391-2.2966 9.75-8e-3 4.3466 0.35085 10.662 0.79852 14.034 0.95924 7.2261-0.49734 14.822-4.0266 20.999-3.9409 6.8972-15.12 16.33-25.919 21.869-5.3608 2.75-9.9788 5.6016-10.262 6.3369-0.756 1.9608 3.3523 5.514 11.036 9.5452 8.0972 4.2479 9.7071 3.9472 17.073-3.189zm36.038-23.87c3.1826-3.2026 7.36-8.6315 9.2832-12.064 1.9232-3.4326 3.8985-6.4894 4.3896-6.793 0.49112-0.30352 1.534-2.67 2.3174-5.2589s2.1424-6.057 3.0198-7.707c0.94175-1.771 1.5655-5.2533 1.5225-8.5-0.0831-6.2822-0.95746-4.7115-2.9224 5.25-0.62383 3.1625-1.5432 5.75-2.043 5.75-0.49983 0-1.8421 1.8294-2.9828 4.0654s-2.6124 3.89-3.2703 3.6757c-0.65797-0.21437-1.6784-2.356-2.2675-4.7592-1.1538-4.7062-1.806-4.4751-2.8742 1.0181-0.65004 3.3431-1.7035 5.7876-9.944 23.075-1.9859 4.166-3.6107 8.1194-3.6107 8.7852 0 1.9664 3.0304-0.14495 9.3822-6.5368zm10.618-45.441c0-1.7454-0.41821-2.7415-1-2.382-0.55 0.33992-1 1.968-1 3.618 0 1.7454 0.41821 2.7415 1 2.382 0.55-0.33992 1-1.968 1-3.618zm0.85943-21.382c0-5.5-0.38674-10.9-0.85943-12-0.53355-1.2416-0.85943 3.3085-0.85943 12s0.32588 13.242 0.85943 12c0.47269-1.1 0.85943-6.5 0.85943-12zm-360.86 268.55c-1.375-0.46828-4.2098-0.89628-6.2997-0.9511-7.4281-0.19487-22.391-10.068-26.717-17.629-2.8396-4.963-2.983-5.7714-2.983-16.814v-11.6l-5.5116-1.6023c-6.8782-1.9996-10.873-5.3048-14.095-11.663-1.4926-2.9455-3.7519-5.6253-5.5811-6.6197-13.988-7.6047-24.445-17.333-29.435-27.382-7.8438-15.798-7.7054-15.119-8.1414-39.949-0.33387-19.01-0.12555-23.681 1.2933-29 0.93019-3.4869 2.2963-8.8148 3.0357-11.84 2.9588-12.104 6.7973-21.833 15.055-38.159 4.2728-8.4473 5.2776-11.841 3.5057-11.841-0.48072 0-2.9589 1.1652-5.507 2.5894-3.9926 2.2315-5.603 2.5446-11.65 2.2652l-7.0174-0.32418-3.7497 4.9613c-7.2712 9.6205-18.387 11.139-26.455 3.6129-3.4184-3.1887-4.0759-4.4774-4.4916-8.8035-0.70341-7.3205 1.0933-11.712 6.4724-15.819 3.3138-2.5303 5.574-3.4821 8.2686-3.4821 5.0555 0 10.034-3.54 12.668-9.0077 1.1904-2.4708 3.5607-5.8214 5.2674-7.446 2.622-2.4959 4.0691-3.0103 9.3357-3.319 5.6214-0.32951 6.772-0.0399 11.733 2.9537 7.9596 4.8033 10.318 9.7178 9.6674 20.143-0.48811 7.8185-0.48702 7.8227 1.5518 6 1.9227-1.719 3.4282-3.7806 10.01-13.708 3.7356-5.6344 9.3907-17.427 10.224-21.319 0.37702-1.7617 1.5976-4.3626 2.7124-5.7798 1.6289-2.0708 2.1322-4.5836 2.5635-12.797 0.29515-5.6211 0.99761-11.11 1.561-12.198 1.0205-1.9703 1.0274-1.9703 1.819 0 1.1187 2.7842-0.15289 20.566-1.6431 22.978-0.67966 1.1-1.5241 4.3336-1.8766 7.1858-1.0127 8.1953-6.9918 20.831-17.42 36.814-11.599 17.777-23.836 44.303-26.296 57-0.53274 2.75-1.9596 7.925-3.1708 11.5-1.9642 5.7977-2.2022 8.5529-2.2022 25.5 0 18.495 0.0776 19.213 2.9164 27 4.9146 13.481 12.412 23.033 24.032 30.617 5.8898 3.8441 7.3322 4.2789 12.937 3.899 3.2882-0.22284 4.577 1.2572 4.5991 5.2814 0.0175 3.1924 4.2373 7.7022 7.2068 7.7022 2.7356 0 6.8085-4.4717 6.8085-7.4752 0-1.9005-1.1544-3.3798-4.4507-5.7032-3.7027-2.6099-4.2861-3.4448-3.4711-4.9676 3.1792-5.9405 15.835-1.7969 19.851 6.4994 2.8724 5.9337 2.5984 9.8771-1.179 16.964-2.9775 5.5864-3.25 6.8558-3.25 15.14 0 10.273 2.1002 17.296 6.1166 20.455 1.991 1.5662 3.4767 1.8296 7.8013 1.3832 4.0901-0.42214 6.0588-0.12778 8.4016 1.2562 2.6914 1.5898 3.5296 1.6524 6.9615 0.5198 4.786-1.5795 12.642-10.165 11.781-12.875-1.1686-3.6818 1.351-17.083 4.3093-22.92 3.1659-6.2468 5.8042-9.0684 10.878-11.634 1.7875-0.90374 4.5036-2.303 6.0359-3.1096 3.8864-2.0457 19.037-0.9898 22.941 1.5989 4.4084 2.9231 5.5998 3.5855 8.5253 4.7403 3.2626 1.2879 6.7387 6.5672 6.744 10.242 2e-3 1.4383-0.92892 3.8008-2.0688 5.25-2.7689 3.5201-8.5644 3.6456-12.601 0.27286-3.63-3.0332-12.855-5.7744-15.703-4.666-3.8305 1.4909-7.8942 6.7515-8.6847 11.243-0.41486 2.357-1.2297 6.9182-1.8108 10.136-0.58107 3.2178-2.1432 7.7178-3.4713 10s-2.7199 5.5652-3.0927 7.2957c-0.81809 3.797-2.4068 5.2652-9.4799 8.7609-5.9389 2.9351-12.205 3.9649-16.085 2.6436zm22.985-18.801c-0.0363-1.7778-1.7466-3.4443-2.4187-2.3568-0.37621 0.60872-0.4059 1.5568-0.066 2.1068 0.72089 1.1664 2.5071 1.3461 2.4847 0.25zm-142.17-206.43c0.21834-1.8899-0.29883-3.0085-1.75-3.7852-2.7881-1.4921-6.0599 0.30926-6.0599 3.3364 0 3.1031 0.88109 3.7798 4.4641 3.4289 2.4579-0.24077 3.095-0.80818 3.3459-2.9801zm26.44-13.971c2.3992-2.8354 2.1948-6.4216-0.47251-8.2899-2.6299-1.8421-9.8691-2.0651-11.577-0.3567-2.0785 2.0785-1.3139 5.84 1.8252 8.979 2.425 2.425 3.5658 2.8972 5.75 2.3804 1.4987-0.3546 3.5123-1.5754 4.4748-2.7129zm40.25 80.492c-7.055-3.7193-11.5-10.441-11.5-17.39 0-4.8658 3.7935-9.9194 11.627-15.489 5.6902-4.0456 9.915-4.4427 16.632-1.5633 8.4468 3.6207 13.032 12.41 11.297 21.656-0.74002 3.9446-6.3405 10.767-10.681 13.012-3.6754 1.9006-13.585 1.7715-17.375-0.22637zm7.2563-14.403c3.4345-1.1973 5.8024-5.5994 4.7668-8.862-0.36211-1.1409-2.204-3.2533-4.093-4.6941-3.1181-2.3783-3.7144-2.5038-6.4706-1.3622-5.7476 2.3807-6.6876 8.409-2.0365 13.06 3.2793 3.2793 3.5633 3.3467 7.8333 1.8582zm21.655-18.826c-5.052-3.0807-7.4113-6.835-7.4113-11.794 0-6.0861 2.0468-9.4953 7.9908-13.31 4.157-2.6676 5.728-3.1509 8.6824-2.6715 8.6291 1.4003 15.157 9.1648 13.951 16.595-1.6758 10.327-14.491 16.499-23.213 11.18zm9.5779-12.596c1.7509-2.1097 0.50737-5.9093-2.4525-7.4934-2.205-1.1801-2.7666-1.1216-4.527 0.47157-2.2477 2.0341-2.6304 5.4882-0.80972 7.3088 1.6711 1.6711 6.3059 1.5003 7.7892-0.28701zm54.456-20.472c-2.9754-1.205-8.4187-7.7378-8.6038-10.326-0.29467-4.1197 0.16566-5.9166 2.2744-8.878 2.2521-3.1627 3.0728-3.0705 3.6032 0.40495 0.6011 3.9388 3.1474 6.7579 6.1039 6.7579 3.622 0 5.177-1.6656 5.177-5.545 0-3.3326-2.0304-5.7706-5.75-6.9041-2.8419-0.86604-2.8498-2.0174-0.0275-3.9942 8.289-5.8058 22.768 6.5232 20.147 17.156-0.93073 3.7763-5.0867 9.0897-8.4839 10.846-3.0112 1.5572-11.118 1.8278-14.441 0.48214zm-61.33-12.542c-8.8431-2.7577-15.914-12.813-14.577-20.729 0.70359-4.1645 6.5545-11.164 12.696-15.188 4.3466-2.848 12.509-2.5086 18.072 0.75164 6.9787 4.0898 9.6937 8.6966 9.6937 16.448 0 9.4394-3.9294 15.153-12.77 18.568-5.0537 1.9524-7.2503 1.9773-13.114 0.14862zm7.43-17.953c3.2362-3.2362 3.0989-6.0549-0.46853-9.6224-4.1402-4.1402-8.4416-4.0134-11.088 0.32692-2.5607 4.1998-2.5066 4.9814 0.59985 8.6733 3.2646 3.8798 7.4607 4.1181 10.957 0.62218zm-75.545-39.236c-0.825-0.2927-3.1465-1.64-5.1588-2.9939-5.8738-3.9518-6.7353-7.7712-4.2969-19.049 0.66659-3.0831 0.49597-3.3219-3.6726-5.139-2.4044-1.0482-5.9441-3.5529-7.8659-5.5662-3.3863-3.5475-3.5014-3.9275-3.7287-12.306-0.17528-6.4627 0.13679-9.0555 1.2362-10.27 1.1893-1.3142 1.233-1.9479 0.22866-3.3129-0.95718-1.3008-4.4522-2.0252-15.242-3.1589-7.7-0.809-16.25-2.1231-19-2.92-2.75-0.797-8.15-1.7638-12-2.1485-3.85-0.3846-9.7-1.5038-13-2.4871s-8.025-2.1011-10.5-2.484-6.3878-1.5462-8.6951-2.5851c-2.3073-1.0388-5.1938-1.8888-6.4144-1.8888-2.9894 0-16.409-6.4505-21.024-10.106-4.4877-3.5544-5.6308-7.5147-3.409-11.811 1.7437-3.372 8.0323-7.0828 12.003-7.0828 2.9971 0 3.0237 0.1662 0.91166 5.6965-1.5071 3.9462-1.5058 4.4501 0.018 6.7757 1.98 3.0218 9.9014 7.2275 18.11 9.6151 3.3 0.9599 7.8 2.4382 10 3.2851s5.4039 1.5596 7.1197 1.5837c1.7158 0.024 5.805 0.9018 9.0871 1.9502 3.282 1.0485 9.9782 2.4016 14.88 3.0069 4.9021 0.6053 11.388 1.7682 14.413 2.5842 3.025 0.8161 10.404 1.9527 16.398 2.5259 5.9941 0.5731 11.25 1.2592 11.679 1.5246 0.42946 0.2654 5.8016 1.1448 11.938 1.9541 13.631 1.7978 16.393 2.9539 16.742 7.0054 0.14154 1.6459 0.96883 5.4762 1.8384 8.5117 1.509 5.2676 1.4833 5.8092-0.56415 11.887l-2.1452 6.368 5.0568 4.6733c5.164 4.7723 5.7045 6.2687 5.0765 14.052-0.66439 8.2343-11.949 15.173-20.02 12.31zm6.4433-14.532c2.0574-2.9373 1.9636-4.3706-0.4433-6.7775-2.2217-2.2217-6.9486-2.6514-8.8-0.8-3.1356 3.1356 0.12867 9.8 4.8 9.8 1.8493 0 3.446-0.7986 4.4433-2.2225zm-12.766-29.028c3.2719-3.6345 3.4879-4.5306 1.8536-7.691-2.0759-4.0143-4.3402-5.059-10.965-5.059-4.642 0-5.5657 0.2915-5.5657 1.7566 0 9.8212 9.3962 16.859 14.677 10.993zm51.772 34.782c-0.79693-1.9073-1.449-4.0206-1.449-4.6962s-1.1913-2.9474-2.6473-5.0484c-2.228-3.215-2.6301-4.8265-2.539-10.176 0.0596-3.4958 1.0258-9.6669 2.1473-13.714 3.0266-10.922 2.7803-12.866-2.3989-18.934-2.4408-2.8595-6.0634-8.2925-8.0501-12.073-1.9868-3.7809-4.4602-7.3281-5.4964-7.8827-1.0363-0.5545-5.464-1.0083-9.8394-1.0083s-11.492-0.665-15.816-1.4779c-4.3233-0.8128-13.989-2.1515-21.479-2.9749-7.4904-0.8233-14.896-1.9826-16.457-2.5761-1.5611-0.5936-6.4576-1.5294-10.881-2.0796-9.3156-1.1586-24.206-5.4671-26.885-7.7793-4.9549-4.2752-4.0327-8.1305 2.6733-11.175 4.5641-2.0722 8.3578-2.4195 10.643-0.9743 1.2497 0.7903 1.1356 1.292-0.75 3.2992-1.2231 1.3019-2.2238 2.8568-2.2238 3.4552 0 1.6813 13.349 5.3643 25 6.8976 5.775 0.76 11.842 1.8456 13.482 2.4123 1.6399 0.5668 8.1649 1.456 14.5 1.976s15.343 1.678 20.018 2.5732c10.871 2.0818 29.192 2.7278 76.5 2.6972 30.592-0.02 39.657-0.3372 46.5-1.6284 4.675-0.8821 13.494-2.0395 19.599-2.572s12.854-1.6537 15-2.4916 6.7911-1.9739 10.323-2.5245c8.0772-1.2591 9.1093-2.1944 6.8212-6.1812-2.4656-4.296-2.2269-4.8758 2.0066-4.8741 7.956 0 14.666 6.3701 11.172 10.601-2.237 2.7093-8.8386 5.1413-15.922 5.8657-3.575 0.3656-8.8234 1.3109-11.663 2.1008-2.8398 0.7898-10.58 1.8786-17.2 2.4195s-15.958 1.6672-20.751 2.503c-4.7928 0.8358-13.16 1.811-18.594 2.1671l-9.8802 0.6475-6.956 7.881c-3.8258 4.3346-6.956 8.3829-6.956 8.9963 0 1.3399 46.828 0.4013 54-1.0823 2.475-0.512 13.275-1.4377 24-2.0573 10.725-0.6195 22.966-1.7923 27.203-2.6062 4.2366-0.8138 12.562-1.9191 18.5-2.4561 5.9384-0.5369 14.172-1.8537 18.297-2.9261 4.125-1.0723 9.975-2.4383 13-3.0354 6.6325-1.3093 15.348-5.8598 15.808-8.2532 0.44932-2.3416-4.2209-6.5543-10.308-9.2977-2.75-1.2395-6.0909-3.4272-7.4243-4.8615l-2.4243-2.6079 2.4243 0.01c9.5576 0.023 26.797 5.4583 31.797 10.026 4.5099 4.1192 4.3678 8.8002-0.3862 12.719-8.1318 6.7029-35.755 13.94-69.987 18.335-46.555 5.9777-59.492 6.8884-106.49 7.4966-30.544 0.3953-29.374 0.1146-30.581 7.3419-0.32846 1.967-1.4135 6.7263-2.4112 10.576-0.99768 3.85-2.1252 8.9185-2.5056 11.263-0.43171 2.6609-1.9694 5.7926-4.091 8.332-1.8696 2.2379-4.2788 6.0569-5.3536 8.4867-1.0748 2.4297-2.2275 4.4178-2.5615 4.4178-0.33399 0-1.2593-1.5605-2.0562-3.4679zm5.5094-19.982c1.0247-1.2347 1.7416-5.7239 3.282-20.55 0.19945-1.9199-0.20435-2.5-1.7403-2.5-1.731 0-2.0838 0.8743-2.6229 6.5-0.34261 3.575-1.375 8.2205-2.2941 10.323-2.5152 5.7545-0.033 10.334 3.3754 6.2268zm16.485-39.205c4.5534-1.7136 11.111-6.6445 12.643-9.5067 2.0842-3.8944-0.33504-4.8496-11.959-4.7217-5.8452 0.064-13.553 0.4018-17.128 0.75-6.1318 0.5972-6.5176 0.7859-6.8114 3.3308-0.64295 5.5704 10.32 13.493 16.811 12.149 1.375-0.2847 4.2747-1.1854 6.4438-2.0018zm43.03 60.067c-0.5358-0.1305-2.2158-0.5112-3.7334-0.8461-3.6769-0.8113-8.7408-7.8255-8.7408-12.107 0-3.5094 5.9772-11.766 10.225-14.125 7.445-4.1337 18.775 3.7066 18.775 12.992 0 4.4185-3.0249 10.078-6.3394 11.862-2.3164 1.2463-8.5836 2.6149-10.186 2.2245zm1.3258-13.612c1.8468-1.8468 1.438-3.5979-1.251-5.3599-2.7387-1.7944-6.549-1.1386-6.549 1.1273 0 1.7885 3.5552 5.4326 5.3 5.4326 0.715 0 1.84-0.54 2.5-1.2zm-152.51 9.1239c-3.8665-1.1555-6.2948-4.3431-6.2948-8.263 0-2.5484 0.26879-2.808 2.25-2.1728 4.1375 1.3266 6.9782 1.0417 8.1233-0.8147 0.94531-1.5324 0.60347-2.2686-2.1233-4.5728-3.8836-3.2817-4.041-4.5362-0.83271-6.6384 1.9455-1.2747 3.1653-1.3816 6.25-0.5478 5.6544 1.5284 8.149 3.6897 9.3327 8.0857 2.5815 9.587-6.7294 17.905-16.705 14.924zm-36.295-41.045c-5.775-0.3415-16.125-1.3506-23-2.2425s-15.875-2.0309-20-2.5311c-33.558-4.0692-55-13.481-55-24.142 0-5.3951 9.105-13.964 14.838-13.964 2.6623 0 2.678 0.6307 0.16214 6.5-2.6168 6.1046-2.5502 6.8037 1.0364 10.889 2.0302 2.3122 5.0954 4.1755 9.25 5.6226 12.601 4.3894 33.774 8.6133 50.214 10.017 6.6 0.5637 18.003 1.9122 25.34 2.9968 7.7732 1.1489 19.574 2.0478 28.277 2.1538 10.536 0.1283 15.243 0.5502 15.974 1.4316 0.75827 0.9137 0.43619 1.5713-1.1978 2.4458-2.5303 1.3542-28.908 1.8269-45.894 0.8225zm372.5-38.536c-6.643-0.7906-11.116-2.724-14.78-6.3883-2.1064-2.1064-5.9425-4.8387-8.5247-6.0717-20.199-9.6453-40.323-30.086-61.504-62.469-3.6282-5.5473-8.4771-13.572-10.775-17.833-3.764-6.9781-4.0256-7.8997-2.6373-9.288s2.1207-1.2138 7.3815 1.7585c12.312 6.9563 36.688 18.965 40.672 20.037 2.2924 0.6167 5.3687 1.7417 6.8363 2.4999 5.0057 2.5863 25.939 6.4012 35.154 6.4066 38.726 0.023 70.555-25.271 94.696-75.253 3.8578-7.9872 7.8877-16.934 8.9554-19.882 9.8835-27.29 11.642-31.36 13.55-31.36 3.7797 0 6.1299 6.7842 9.0069 26 2.4232 16.185 2.6446 19.916 2.1959 37-0.72183 27.481-4.4072 43.986-14.785 66.216-7.8949 16.911-22.459 37.284-26.653 37.284-2.4139 0-1.3159-5.7114 2.6211-13.634 7.996-16.091 17.265-41.61 18.657-51.366 0.35309-2.475 1.2881-6.75 2.0778-9.5 1.74-6.0594 3.069-25.472 1.643-24-0.53285 0.55-4.8528 12.7-9.5999 27-10.449 31.477-12.883 38.294-15.025 42.084-0.90628 1.6039-2.0897 4.1536-2.6299 5.6661-0.54015 1.5125-1.6682 2.75-2.5068 2.75-2.0221 0-2.0247-10.135-5e-3 -18.5 1.5924-6.5949 2.0006-23.06 0.59331-23.93-2.4768-1.5307-4.9425 7.6871-6.9786 26.089-0.95967 8.6735-5.429 25.738-7.2789 27.791-2.1298 2.364-3.2311-1.9993-3.8872-15.4-0.67856-13.865-1.5297-17.05-4.5556-17.05-2.7596 0-3.5287 4.5554-4.2673 25.276-0.81278 22.8-1.6137 26.614-5.1874 24.702-3.0815-1.6491-4.9438-5.2462-5.9652-11.522-1.0172-6.2501-4.3538-17.11-6.746-21.956-3.5272-7.1458-8.2383-9.2956-13.024-5.9433-4.8693 3.4106-2.018 15.174 6.9898 28.838 5.2067 7.898 6.7877 11.085 6.7877 13.681 0 1.8985-0.39369 2.096-3.0991 1.5549-2.3221-0.4644-7.7748-5.3704-21.75-19.569-18.264-18.556-25.033-23.811-28.806-22.363-5.4123 2.077 8.7051 17.004 30.816 32.583 3.6635 2.5813 8.2526 6.5527 10.198 8.8254 2.8888 3.375 4.6003 4.3824 9.3391 5.4975 7.1266 1.6768 26.355 1.8107 33.198 0.2311 3.4042-0.7858 5.7647-0.8456 7.2479-0.1838 1.9961 0.8907 1.5259 1.3237-5.0819 4.6806-6.9733 3.5427-19.331 7.0051-31.062 8.7035-5.4685 0.7917-25.769 0.9904-31.5 0.3082zm3.5-20.48c-11.464-6.4999-32.408-20.844-41.5-28.423-6.4607-5.3854-9.5-7.0251-9.5-5.1254 0 3.2088 10.575 14.701 20.401 22.169 9.2059 6.9974 25.304 14.215 32.099 14.393l4 0.1045-5.5-3.1183zm-269 18.152c-2.475-0.4534-10.575-1.1555-18-1.5602s-15.75-1.3629-18.5-2.1293c-2.75-0.7665-7.3452-1.9902-10.212-2.7193-9.9613-2.534-13.372-6.7483-9.1329-11.286 1.2894-1.3805 3.4694-3.0827 4.8444-3.7826 3.9571-2.0146 18.099-4.8387 19.119-3.8182 0.53802 0.538-1.5339 2.4968-5.1219 4.8422-9.1193 5.9611-8.1856 6.9408 9.5306 9.9998 4.9653 0.8574 11.482 1.4193 14.481 1.2489 4.8452-0.2755 5.5296-0.5886 6.1421-2.81 0.37913-1.375 1.8974-7 3.3739-12.5s4.0977-12.7 5.8249-16c4.3384-8.289 15.779-19.637 22.189-22.008 6.8634-2.5394 7.2016-2.9093 8.5206-9.3188 0.64201-3.12 1.5606-7.0227 2.0412-8.6727s1.803-8.3703 2.9385-14.934 2.9876-14.08 4.1158-16.702c3.1462-7.3134 8.1544-9.6734 13.331-6.2818 5.0752 3.3254 5.4017 10.752 1.3594 30.918-1.1024 5.5-2.2559 13.23-2.5632 17.179l-0.55875 7.1785 5.4633 5.8215c10.356 11.035 13.57 18.069 14.945 32.718 0.52582 5.6 1.5155 10.672 2.2202 11.379 2.6137 2.6217 25.071-1.2006 31.393-5.3434 2.1526-1.4104 2.1943-1.6508 0.76637-4.4122-2.181-4.2176-1.9025-5.0204 1.7397-5.0162 4.3295 0.01 9.5387 3.3063 10.356 6.5631 1.3382 5.3317-8.1057 10.874-23.606 13.854-3.575 0.6874-8.75 1.9958-11.5 2.9076s-11.525 2.3896-19.5 3.2839c-15.971 1.7911-58.9 2.7031-66 1.4022zm18.409-20.618c4.8131-1.8469 12.996-18.928 12.41-25.903-1.0364-12.322-13.206-2.1303-17.231 14.43-2.3201 9.5457-0.63091 13.566 4.8212 11.473z"/>
 </g>
</svg>
